<mxfile host="app.diagrams.net" modified="2023-06-18T06:05:21.669Z" agent="Mozilla/5.0 (Windows NT 10.0; Win64; x64) AppleWebKit/537.36 (KHTML, like Gecko) Chrome/114.0.0.0 Safari/537.36 Edg/114.0.1823.51" etag="y9nPNjFoYbCoEvE648ff" version="21.4.0" type="device">
  <diagram name="Page-1" id="anb9goCUzKRVSYcgYNN-">
    <mxGraphModel dx="574" dy="306" grid="1" gridSize="10" guides="1" tooltips="1" connect="1" arrows="1" fold="1" page="1" pageScale="1" pageWidth="850" pageHeight="1100" math="0" shadow="0">
      <root>
        <mxCell id="0" />
        <mxCell id="1" parent="0" />
        <mxCell id="dvA_z_t74iFm4zBxd-Nr-1" value="" style="endArrow=classic;html=1;rounded=0;entryX=0;entryY=0.5;entryDx=0;entryDy=0;" parent="1" target="dvA_z_t74iFm4zBxd-Nr-3" edge="1">
          <mxGeometry width="50" height="50" relative="1" as="geometry">
            <mxPoint x="51" y="160" as="sourcePoint" />
            <mxPoint x="141" y="165" as="targetPoint" />
            <Array as="points">
              <mxPoint x="101" y="160" />
            </Array>
          </mxGeometry>
        </mxCell>
        <mxCell id="dvA_z_t74iFm4zBxd-Nr-4" value="&lt;font style=&quot;font-size: 16px;&quot;&gt;x[n]&lt;/font&gt;" style="edgeLabel;html=1;align=center;verticalAlign=middle;resizable=0;points=[];" parent="dvA_z_t74iFm4zBxd-Nr-1" vertex="1" connectable="0">
          <mxGeometry x="-0.6165" y="-2" relative="1" as="geometry">
            <mxPoint x="19" y="-2" as="offset" />
          </mxGeometry>
        </mxCell>
        <mxCell id="dvA_z_t74iFm4zBxd-Nr-17" style="edgeStyle=orthogonalEdgeStyle;rounded=0;orthogonalLoop=1;jettySize=auto;html=1;exitX=1;exitY=0.5;exitDx=0;exitDy=0;entryX=0;entryY=0.5;entryDx=0;entryDy=0;" parent="1" source="dvA_z_t74iFm4zBxd-Nr-3" target="dvA_z_t74iFm4zBxd-Nr-10" edge="1">
          <mxGeometry relative="1" as="geometry" />
        </mxCell>
        <mxCell id="dvA_z_t74iFm4zBxd-Nr-3" value="" style="shape=lineEllipse;perimeter=ellipsePerimeter;whiteSpace=wrap;html=1;backgroundOutline=1;" parent="1" vertex="1">
          <mxGeometry x="120" y="150" width="20" height="20" as="geometry" />
        </mxCell>
        <mxCell id="vHbMXmrzcRVjkTlULsuz-10" style="edgeStyle=orthogonalEdgeStyle;rounded=0;orthogonalLoop=1;jettySize=auto;html=1;entryX=0;entryY=0.5;entryDx=0;entryDy=0;" edge="1" parent="1" source="dvA_z_t74iFm4zBxd-Nr-10" target="vHbMXmrzcRVjkTlULsuz-3">
          <mxGeometry relative="1" as="geometry" />
        </mxCell>
        <mxCell id="dvA_z_t74iFm4zBxd-Nr-10" value="" style="shape=sumEllipse;perimeter=ellipsePerimeter;whiteSpace=wrap;html=1;backgroundOutline=1;" parent="1" vertex="1">
          <mxGeometry x="160" y="150" width="20" height="20" as="geometry" />
        </mxCell>
        <mxCell id="dvA_z_t74iFm4zBxd-Nr-12" value="" style="endArrow=classic;html=1;rounded=0;entryX=0.5;entryY=1;entryDx=0;entryDy=0;" parent="1" target="dvA_z_t74iFm4zBxd-Nr-10" edge="1">
          <mxGeometry width="50" height="50" relative="1" as="geometry">
            <mxPoint x="170" y="205" as="sourcePoint" />
            <mxPoint x="190" y="185" as="targetPoint" />
            <Array as="points" />
          </mxGeometry>
        </mxCell>
        <mxCell id="dvA_z_t74iFm4zBxd-Nr-13" value="1/8" style="edgeLabel;html=1;align=center;verticalAlign=middle;resizable=0;points=[];" parent="dvA_z_t74iFm4zBxd-Nr-12" vertex="1" connectable="0">
          <mxGeometry x="-0.4222" y="1" relative="1" as="geometry">
            <mxPoint x="1" y="-4" as="offset" />
          </mxGeometry>
        </mxCell>
        <mxCell id="dvA_z_t74iFm4zBxd-Nr-19" style="edgeStyle=orthogonalEdgeStyle;rounded=0;orthogonalLoop=1;jettySize=auto;html=1;exitX=1;exitY=0.5;exitDx=0;exitDy=0;" parent="1" source="dvA_z_t74iFm4zBxd-Nr-14" edge="1">
          <mxGeometry relative="1" as="geometry">
            <mxPoint x="390" y="160" as="targetPoint" />
            <Array as="points">
              <mxPoint x="260" y="160" />
            </Array>
            <mxPoint x="270" y="160" as="sourcePoint" />
          </mxGeometry>
        </mxCell>
        <mxCell id="dvA_z_t74iFm4zBxd-Nr-20" value="&lt;font style=&quot;font-size: 16px;&quot;&gt;y[n]&lt;/font&gt;" style="edgeLabel;html=1;align=center;verticalAlign=middle;resizable=0;points=[];" parent="dvA_z_t74iFm4zBxd-Nr-19" vertex="1" connectable="0">
          <mxGeometry x="0.2908" y="1" relative="1" as="geometry">
            <mxPoint x="10" y="1" as="offset" />
          </mxGeometry>
        </mxCell>
        <mxCell id="dvA_z_t74iFm4zBxd-Nr-22" value="&lt;font style=&quot;font-size: 10px;&quot;&gt;Z&lt;sup&gt;-1&lt;/sup&gt;&lt;/font&gt;" style="rounded=0;whiteSpace=wrap;html=1;" parent="1" vertex="1">
          <mxGeometry x="303" y="186" width="20" height="20" as="geometry" />
        </mxCell>
        <mxCell id="dvA_z_t74iFm4zBxd-Nr-26" value="" style="endArrow=classic;html=1;rounded=0;entryX=0.5;entryY=0;entryDx=0;entryDy=0;" parent="1" target="dvA_z_t74iFm4zBxd-Nr-22" edge="1">
          <mxGeometry width="50" height="50" relative="1" as="geometry">
            <mxPoint x="313" y="160" as="sourcePoint" />
            <mxPoint x="238" y="180" as="targetPoint" />
          </mxGeometry>
        </mxCell>
        <mxCell id="dvA_z_t74iFm4zBxd-Nr-27" value="" style="endArrow=classic;html=1;rounded=0;entryX=0.5;entryY=1;entryDx=0;entryDy=0;exitX=0.5;exitY=1;exitDx=0;exitDy=0;" parent="1" source="dvA_z_t74iFm4zBxd-Nr-22" edge="1" target="dvA_z_t74iFm4zBxd-Nr-14">
          <mxGeometry width="50" height="50" relative="1" as="geometry">
            <mxPoint x="280" y="206" as="sourcePoint" />
            <mxPoint x="220" y="170" as="targetPoint" />
            <Array as="points">
              <mxPoint x="313" y="240" />
              <mxPoint x="270" y="240" />
            </Array>
          </mxGeometry>
        </mxCell>
        <mxCell id="dvA_z_t74iFm4zBxd-Nr-28" value="" style="endArrow=classic;html=1;rounded=0;entryX=0.5;entryY=1;entryDx=0;entryDy=0;" parent="1" edge="1">
          <mxGeometry width="50" height="50" relative="1" as="geometry">
            <mxPoint x="270" y="240" as="sourcePoint" />
            <mxPoint x="130" y="170" as="targetPoint" />
            <Array as="points">
              <mxPoint x="130" y="240" />
            </Array>
          </mxGeometry>
        </mxCell>
        <mxCell id="vHbMXmrzcRVjkTlULsuz-11" value="" style="edgeStyle=orthogonalEdgeStyle;rounded=0;orthogonalLoop=1;jettySize=auto;html=1;" edge="1" parent="1" source="vHbMXmrzcRVjkTlULsuz-3" target="dvA_z_t74iFm4zBxd-Nr-14">
          <mxGeometry relative="1" as="geometry" />
        </mxCell>
        <mxCell id="vHbMXmrzcRVjkTlULsuz-3" value="" style="shape=orEllipse;perimeter=ellipsePerimeter;whiteSpace=wrap;html=1;backgroundOutline=1;" vertex="1" parent="1">
          <mxGeometry x="208" y="150" width="20" height="20" as="geometry" />
        </mxCell>
        <mxCell id="vHbMXmrzcRVjkTlULsuz-4" value="" style="endArrow=classic;html=1;rounded=0;entryX=0.5;entryY=1;entryDx=0;entryDy=0;" edge="1" parent="1" target="vHbMXmrzcRVjkTlULsuz-3">
          <mxGeometry width="50" height="50" relative="1" as="geometry">
            <mxPoint x="218" y="190" as="sourcePoint" />
            <mxPoint x="298" y="180" as="targetPoint" />
          </mxGeometry>
        </mxCell>
        <mxCell id="vHbMXmrzcRVjkTlULsuz-5" value="&lt;font style=&quot;font-size: 9px;&quot;&gt;quantization &lt;br&gt;error&lt;/font&gt;" style="text;html=1;align=center;verticalAlign=middle;resizable=0;points=[];autosize=1;strokeColor=none;fillColor=none;" vertex="1" parent="1">
          <mxGeometry x="183" y="186" width="70" height="40" as="geometry" />
        </mxCell>
        <mxCell id="dvA_z_t74iFm4zBxd-Nr-14" value="" style="shape=orEllipse;perimeter=ellipsePerimeter;whiteSpace=wrap;html=1;backgroundOutline=1;" parent="1" vertex="1">
          <mxGeometry x="260" y="150" width="20" height="20" as="geometry" />
        </mxCell>
      </root>
    </mxGraphModel>
  </diagram>
</mxfile>
